<svg width="99" height="15" viewBox="0 0 99 15" fill="none" xmlns="http://www.w3.org/2000/svg">
<path d="M0.99 13L6.21 2.5H8.61L13.8 13H11.16L8.055 6.775C7.945 6.555 7.845 6.35 7.755 6.16C7.665 5.96 7.58 5.77 7.5 5.59C7.42 5.4 7.345 5.215 7.275 5.035C7.215 4.845 7.15 4.65 7.08 4.45L7.665 4.435C7.595 4.645 7.52 4.85 7.44 5.05C7.37 5.24 7.29 5.43 7.2 5.62C7.12 5.81 7.035 6.005 6.945 6.205C6.855 6.395 6.76 6.59 6.66 6.79L3.57 13H0.99ZM3.405 11.14L4.245 9.22H10.53L10.875 11.14H3.405Z" fill="#C66D6B"/>
<path d="M22.58 13V2.5H28.565C29.485 2.5 30.26 2.605 30.89 2.815C31.53 3.025 32.01 3.32 32.33 3.7C32.65 4.08 32.81 4.54 32.81 5.08C32.81 5.66 32.635 6.16 32.285 6.58C31.935 6.99 31.405 7.275 30.695 7.435L30.77 7.165C31.22 7.265 31.64 7.425 32.03 7.645C32.43 7.855 32.75 8.14 32.99 8.5C33.24 8.86 33.365 9.3 33.365 9.82C33.365 10.46 33.23 10.985 32.96 11.395C32.69 11.805 32.335 12.13 31.895 12.37C31.455 12.6 30.975 12.765 30.455 12.865C29.945 12.955 29.445 13 28.955 13H22.58ZM24.98 10.87H29.015C29.365 10.87 29.675 10.83 29.945 10.75C30.225 10.67 30.445 10.545 30.605 10.375C30.775 10.195 30.86 9.97 30.86 9.7C30.86 9.39 30.755 9.155 30.545 8.995C30.335 8.825 30.08 8.71 29.78 8.65C29.48 8.58 29.2 8.545 28.94 8.545H24.98V10.87ZM24.98 6.625H28.595C28.925 6.625 29.215 6.585 29.465 6.505C29.725 6.425 29.925 6.31 30.065 6.16C30.215 6.01 30.29 5.82 30.29 5.59C30.29 5.24 30.115 4.995 29.765 4.855C29.425 4.705 29.005 4.63 28.505 4.63H24.98V6.625Z" fill="#5F4343"/>
<path d="M49.505 13.15C48.515 13.15 47.615 13.015 46.805 12.745C45.995 12.465 45.295 12.08 44.705 11.59C44.115 11.09 43.655 10.51 43.325 9.85C43.005 9.19 42.845 8.475 42.845 7.705C42.845 6.935 43.005 6.22 43.325 5.56C43.655 4.9 44.115 4.325 44.705 3.835C45.305 3.335 46.005 2.95 46.805 2.68C47.615 2.4 48.51 2.26 49.49 2.26C50.46 2.26 51.35 2.4 52.16 2.68C52.97 2.95 53.67 3.335 54.26 3.835C54.85 4.325 55.305 4.9 55.625 5.56C55.955 6.22 56.12 6.935 56.12 7.705C56.12 8.475 55.955 9.19 55.625 9.85C55.305 10.51 54.85 11.09 54.26 11.59C53.67 12.08 52.97 12.465 52.16 12.745C51.35 13.015 50.465 13.15 49.505 13.15ZM49.49 10.75C50.08 10.75 50.62 10.675 51.11 10.525C51.61 10.365 52.04 10.15 52.4 9.88C52.76 9.6 53.035 9.275 53.225 8.905C53.425 8.535 53.525 8.135 53.525 7.705C53.525 7.275 53.425 6.875 53.225 6.505C53.035 6.135 52.76 5.815 52.4 5.545C52.04 5.265 51.61 5.05 51.11 4.9C50.62 4.74 50.08 4.66 49.49 4.66C48.9 4.66 48.355 4.74 47.855 4.9C47.365 5.05 46.935 5.265 46.565 5.545C46.205 5.815 45.93 6.135 45.74 6.505C45.55 6.875 45.455 7.275 45.455 7.705C45.455 8.135 45.55 8.535 45.74 8.905C45.93 9.275 46.205 9.6 46.565 9.88C46.935 10.15 47.365 10.365 47.855 10.525C48.355 10.675 48.9 10.75 49.49 10.75Z" fill="#C66D6B"/>
<path d="M71.025 13.09C69.905 13.09 68.93 12.87 68.1 12.43C67.27 11.99 66.625 11.385 66.165 10.615C65.705 9.845 65.475 8.965 65.475 7.975V2.5H68.055V7.915C68.055 8.485 68.18 8.99 68.43 9.43C68.69 9.87 69.045 10.215 69.495 10.465C69.945 10.705 70.455 10.825 71.025 10.825C71.615 10.825 72.135 10.705 72.585 10.465C73.045 10.215 73.405 9.87 73.665 9.43C73.935 8.99 74.07 8.485 74.07 7.915V2.5H76.56V7.975C76.56 8.965 76.33 9.845 75.87 10.615C75.41 11.385 74.765 11.99 73.935 12.43C73.105 12.87 72.135 13.09 71.025 13.09Z" fill="#C66D6B"/>
<path d="M90.625 13V4.75H86.455V2.5H97.42V4.75H93.175V13H90.625Z" fill="#5F4343"/>
</svg>
