<svg width="138" height="15" viewBox="0 0 138 15" fill="none" xmlns="http://www.w3.org/2000/svg">
<path d="M8.34 13.15C7.43 13.15 6.58 13.02 5.79 12.76C5.01 12.5 4.32 12.13 3.72 11.65C3.13 11.17 2.67 10.6 2.34 9.94C2.01 9.27 1.845 8.525 1.845 7.705C1.845 6.905 2.015 6.175 2.355 5.515C2.695 4.855 3.155 4.285 3.735 3.805C4.325 3.315 5.01 2.94 5.79 2.68C6.58 2.42 7.42 2.29 8.31 2.29C8.98 2.29 9.62 2.365 10.23 2.515C10.85 2.665 11.42 2.865 11.94 3.115C12.47 3.355 12.91 3.62 13.26 3.91L11.82 5.935C11.54 5.705 11.22 5.49 10.86 5.29C10.51 5.09 10.11 4.93 9.66 4.81C9.22 4.69 8.715 4.63 8.145 4.63C7.695 4.63 7.255 4.7 6.825 4.84C6.395 4.97 6 5.165 5.64 5.425C5.28 5.685 4.995 6.01 4.785 6.4C4.575 6.79 4.47 7.235 4.47 7.735C4.47 8.245 4.58 8.695 4.8 9.085C5.03 9.475 5.335 9.8 5.715 10.06C6.095 10.32 6.525 10.515 7.005 10.645C7.485 10.775 7.98 10.84 8.49 10.84C9.07 10.84 9.58 10.765 10.02 10.615C10.46 10.455 10.85 10.265 11.19 10.045C11.53 9.825 11.83 9.625 12.09 9.445L13.29 11.425C12.99 11.665 12.585 11.92 12.075 12.19C11.575 12.46 11.005 12.69 10.365 12.88C9.735 13.06 9.06 13.15 8.34 13.15Z" fill="#5F4343"/>
<path d="M28.505 13.15C27.515 13.15 26.615 13.015 25.805 12.745C24.995 12.465 24.295 12.08 23.705 11.59C23.115 11.09 22.655 10.51 22.325 9.85C22.005 9.19 21.845 8.475 21.845 7.705C21.845 6.935 22.005 6.22 22.325 5.56C22.655 4.9 23.115 4.325 23.705 3.835C24.305 3.335 25.005 2.95 25.805 2.68C26.615 2.4 27.51 2.26 28.49 2.26C29.46 2.26 30.35 2.4 31.16 2.68C31.97 2.95 32.67 3.335 33.26 3.835C33.85 4.325 34.305 4.9 34.625 5.56C34.955 6.22 35.12 6.935 35.12 7.705C35.12 8.475 34.955 9.19 34.625 9.85C34.305 10.51 33.85 11.09 33.26 11.59C32.67 12.08 31.97 12.465 31.16 12.745C30.35 13.015 29.465 13.15 28.505 13.15ZM28.49 10.75C29.08 10.75 29.62 10.675 30.11 10.525C30.61 10.365 31.04 10.15 31.4 9.88C31.76 9.6 32.035 9.275 32.225 8.905C32.425 8.535 32.525 8.135 32.525 7.705C32.525 7.275 32.425 6.875 32.225 6.505C32.035 6.135 31.76 5.815 31.4 5.545C31.04 5.265 30.61 5.05 30.11 4.9C29.62 4.74 29.08 4.66 28.49 4.66C27.9 4.66 27.355 4.74 26.855 4.9C26.365 5.05 25.935 5.265 25.565 5.545C25.205 5.815 24.93 6.135 24.74 6.505C24.55 6.875 24.455 7.275 24.455 7.705C24.455 8.135 24.55 8.535 24.74 8.905C24.93 9.275 25.205 9.6 25.565 9.88C25.935 10.15 26.365 10.365 26.855 10.525C27.355 10.675 27.9 10.75 28.49 10.75Z" fill="#C66D6B"/>
<path d="M44.58 13V2.5H47.01L54.615 10L54.27 9.925C54.21 9.545 54.16 9.18 54.12 8.83C54.09 8.48 54.065 8.145 54.045 7.825C54.025 7.505 54.01 7.195 54 6.895C53.99 6.595 53.98 6.295 53.97 5.995C53.97 5.695 53.97 5.395 53.97 5.095V2.5H56.445V13H53.985L46.14 5.26L46.755 5.365C46.785 5.515 46.81 5.685 46.83 5.875C46.86 6.065 46.885 6.28 46.905 6.52C46.935 6.76 46.96 7.03 46.98 7.33C47.01 7.62 47.03 7.945 47.04 8.305C47.05 8.665 47.055 9.06 47.055 9.49V13H44.58Z" fill="#C66D6B"/>
<path d="M70.625 13V4.75H66.455V2.5H77.42V4.75H73.175V13H70.625Z" fill="#5F4343"/>
<path d="M84.99 13L90.21 2.5H92.61L97.8 13H95.16L92.055 6.775C91.945 6.555 91.845 6.35 91.755 6.16C91.665 5.96 91.58 5.77 91.5 5.59C91.42 5.4 91.345 5.215 91.275 5.035C91.215 4.845 91.15 4.65 91.08 4.45L91.665 4.435C91.595 4.645 91.52 4.85 91.44 5.05C91.37 5.24 91.29 5.43 91.2 5.62C91.12 5.81 91.035 6.005 90.945 6.205C90.855 6.395 90.76 6.59 90.66 6.79L87.57 13H84.99ZM87.405 11.14L88.245 9.22H94.53L94.875 11.14H87.405Z" fill="#C66D6B"/>
<path d="M112.34 13.15C111.43 13.15 110.58 13.02 109.79 12.76C109.01 12.5 108.32 12.13 107.72 11.65C107.13 11.17 106.67 10.6 106.34 9.94C106.01 9.27 105.845 8.525 105.845 7.705C105.845 6.905 106.015 6.175 106.355 5.515C106.695 4.855 107.155 4.285 107.735 3.805C108.325 3.315 109.01 2.94 109.79 2.68C110.58 2.42 111.42 2.29 112.31 2.29C112.98 2.29 113.62 2.365 114.23 2.515C114.85 2.665 115.42 2.865 115.94 3.115C116.47 3.355 116.91 3.62 117.26 3.91L115.82 5.935C115.54 5.705 115.22 5.49 114.86 5.29C114.51 5.09 114.11 4.93 113.66 4.81C113.22 4.69 112.715 4.63 112.145 4.63C111.695 4.63 111.255 4.7 110.825 4.84C110.395 4.97 110 5.165 109.64 5.425C109.28 5.685 108.995 6.01 108.785 6.4C108.575 6.79 108.47 7.235 108.47 7.735C108.47 8.245 108.58 8.695 108.8 9.085C109.03 9.475 109.335 9.8 109.715 10.06C110.095 10.32 110.525 10.515 111.005 10.645C111.485 10.775 111.98 10.84 112.49 10.84C113.07 10.84 113.58 10.765 114.02 10.615C114.46 10.455 114.85 10.265 115.19 10.045C115.53 9.825 115.83 9.625 116.09 9.445L117.29 11.425C116.99 11.665 116.585 11.92 116.075 12.19C115.575 12.46 115.005 12.69 114.365 12.88C113.735 13.06 113.06 13.15 112.34 13.15Z" fill="#5F4343"/>
<path d="M129.625 13V4.75H125.455V2.5H136.42V4.75H132.175V13H129.625Z" fill="#5F4343"/>
</svg>
