<svg width="114" height="15" viewBox="0 0 114 15" fill="none" xmlns="http://www.w3.org/2000/svg">
<path d="M7.69318 13.15C6.84318 13.15 6.06318 13.075 5.35318 12.925C4.64318 12.765 3.99818 12.555 3.41818 12.295C2.84818 12.025 2.32818 11.72 1.85818 11.38L3.02818 9.34C3.84818 9.92 4.67318 10.345 5.50318 10.615C6.33318 10.875 7.12818 11.005 7.88818 11.005C8.21818 11.005 8.56318 10.975 8.92318 10.915C9.28318 10.845 9.58318 10.73 9.82318 10.57C10.0732 10.4 10.1982 10.17 10.1982 9.88C10.1982 9.71 10.1382 9.57 10.0182 9.46C9.90818 9.34 9.75318 9.245 9.55318 9.175C9.35318 9.105 9.11818 9.05 8.84818 9.01C8.58818 8.96 8.30318 8.925 7.99318 8.905C7.69318 8.875 7.38818 8.845 7.07818 8.815C6.37818 8.745 5.74318 8.63 5.17318 8.47C4.60318 8.31 4.11318 8.105 3.70318 7.855C3.30318 7.595 2.99318 7.28 2.77318 6.91C2.55318 6.54 2.44318 6.115 2.44318 5.635C2.44318 5.095 2.57318 4.615 2.83318 4.195C3.10318 3.775 3.47818 3.425 3.95818 3.145C4.43818 2.855 4.98818 2.635 5.60818 2.485C6.23818 2.335 6.91318 2.26 7.63318 2.26C8.38318 2.26 9.05818 2.33 9.65818 2.47C10.2682 2.6 10.8032 2.78 11.2632 3.01C11.7332 3.24 12.1232 3.49 12.4332 3.76L11.2032 5.53C10.8932 5.3 10.5332 5.105 10.1232 4.945C9.72318 4.775 9.29818 4.645 8.84818 4.555C8.40818 4.465 7.96818 4.42 7.52818 4.42C7.07818 4.42 6.67318 4.46 6.31318 4.54C5.96318 4.61 5.68318 4.72 5.47318 4.87C5.27318 5.01 5.17318 5.195 5.17318 5.425C5.17318 5.635 5.25818 5.81 5.42818 5.95C5.60818 6.08 5.83818 6.185 6.11818 6.265C6.39818 6.335 6.70818 6.39 7.04818 6.43C7.38818 6.47 7.71818 6.51 8.03818 6.55C8.63818 6.61 9.22818 6.69 9.80818 6.79C10.3882 6.88 10.9082 7.03 11.3682 7.24C11.8382 7.44 12.2132 7.73 12.4932 8.11C12.7732 8.48 12.9132 8.985 12.9132 9.625C12.9132 10.365 12.6882 11 12.2382 11.53C11.7882 12.05 11.1682 12.45 10.3782 12.73C9.59818 13.01 8.70318 13.15 7.69318 13.15Z" fill="#C66D6B"/>
<path d="M24.6591 10.495L24.0891 8.32L31.5291 2.5H34.8141L24.6591 10.495ZM22.9941 13V2.5H25.5441V13H22.9941ZM31.6941 13L27.2091 7.555L28.7391 5.815L34.7991 13H31.6941Z" fill="#5F4343"/>
<path d="M44.9 13V10.75H47.72V4.75H44.9V2.5H53.105V4.75H50.27V10.75H53.105V13H44.9Z" fill="#5F4343"/>
<path d="M63.7685 13V2.5H66.3185V10.75H73.0985V13H63.7685Z" fill="#5F4343"/>
<path d="M82.7685 13V2.5H85.3185V10.75H92.0985V13H82.7685Z" fill="#5F4343"/>
<path d="M106.693 13.15C105.843 13.15 105.063 13.075 104.353 12.925C103.643 12.765 102.998 12.555 102.418 12.295C101.848 12.025 101.328 11.72 100.858 11.38L102.028 9.34C102.848 9.92 103.673 10.345 104.503 10.615C105.333 10.875 106.128 11.005 106.888 11.005C107.218 11.005 107.563 10.975 107.923 10.915C108.283 10.845 108.583 10.73 108.823 10.57C109.073 10.4 109.198 10.17 109.198 9.88C109.198 9.71 109.138 9.57 109.018 9.46C108.908 9.34 108.753 9.245 108.553 9.175C108.353 9.105 108.118 9.05 107.848 9.01C107.588 8.96 107.303 8.925 106.993 8.905C106.693 8.875 106.388 8.845 106.078 8.815C105.378 8.745 104.743 8.63 104.173 8.47C103.603 8.31 103.113 8.105 102.703 7.855C102.303 7.595 101.993 7.28 101.773 6.91C101.553 6.54 101.443 6.115 101.443 5.635C101.443 5.095 101.573 4.615 101.833 4.195C102.103 3.775 102.478 3.425 102.958 3.145C103.438 2.855 103.988 2.635 104.608 2.485C105.238 2.335 105.913 2.26 106.633 2.26C107.383 2.26 108.058 2.33 108.658 2.47C109.268 2.6 109.803 2.78 110.263 3.01C110.733 3.24 111.123 3.49 111.433 3.76L110.203 5.53C109.893 5.3 109.533 5.105 109.123 4.945C108.723 4.775 108.298 4.645 107.848 4.555C107.408 4.465 106.968 4.42 106.528 4.42C106.078 4.42 105.673 4.46 105.313 4.54C104.963 4.61 104.683 4.72 104.473 4.87C104.273 5.01 104.173 5.195 104.173 5.425C104.173 5.635 104.258 5.81 104.428 5.95C104.608 6.08 104.838 6.185 105.118 6.265C105.398 6.335 105.708 6.39 106.048 6.43C106.388 6.47 106.718 6.51 107.038 6.55C107.638 6.61 108.228 6.69 108.808 6.79C109.388 6.88 109.908 7.03 110.368 7.24C110.838 7.44 111.213 7.73 111.493 8.11C111.773 8.48 111.913 8.985 111.913 9.625C111.913 10.365 111.688 11 111.238 11.53C110.788 12.05 110.168 12.45 109.378 12.73C108.598 13.01 107.703 13.15 106.693 13.15Z" fill="#C66D6B"/>
</svg>
