<svg width="105" height="15" viewBox="0 0 105 15" fill="none" xmlns="http://www.w3.org/2000/svg">
<path d="M5.20422 13L1.52922 2.5H4.18422L5.95422 7.615C6.02422 7.815 6.09922 8.055 6.17922 8.335C6.26922 8.615 6.35422 8.91 6.43422 9.22C6.52422 9.52 6.59922 9.81 6.65922 10.09C6.72922 10.36 6.77922 10.59 6.80922 10.78H6.25422C6.30422 10.51 6.37422 10.205 6.46422 9.865C6.56422 9.515 6.67922 9.145 6.80922 8.755C6.94922 8.365 7.09422 7.99 7.24422 7.63L8.84922 3.865H10.9942L12.5692 7.6C12.7192 7.97 12.8642 8.35 13.0042 8.74C13.1442 9.12 13.2642 9.48 13.3642 9.82C13.4742 10.16 13.5442 10.46 13.5742 10.72L13.0642 10.765C13.0842 10.605 13.1142 10.42 13.1542 10.21C13.2042 10 13.2542 9.775 13.3042 9.535C13.3642 9.295 13.4242 9.055 13.4842 8.815C13.5542 8.575 13.6242 8.345 13.6942 8.125C13.7642 7.905 13.8292 7.71 13.8892 7.54L15.9142 2.5H18.4492L14.3242 13H12.3742L9.61422 6.46L10.0492 6.49L7.36422 13H5.20422Z" fill="#5F4343"/>
<path d="M33.5162 13.15C32.5262 13.15 31.6262 13.015 30.8162 12.745C30.0062 12.465 29.3062 12.08 28.7162 11.59C28.1262 11.09 27.6662 10.51 27.3362 9.85C27.0162 9.19 26.8562 8.475 26.8562 7.705C26.8562 6.935 27.0162 6.22 27.3362 5.56C27.6662 4.9 28.1262 4.325 28.7162 3.835C29.3162 3.335 30.0162 2.95 30.8162 2.68C31.6262 2.4 32.5212 2.26 33.5012 2.26C34.4712 2.26 35.3612 2.4 36.1712 2.68C36.9812 2.95 37.6812 3.335 38.2712 3.835C38.8612 4.325 39.3162 4.9 39.6362 5.56C39.9662 6.22 40.1312 6.935 40.1312 7.705C40.1312 8.475 39.9662 9.19 39.6362 9.85C39.3162 10.51 38.8612 11.09 38.2712 11.59C37.6812 12.08 36.9812 12.465 36.1712 12.745C35.3612 13.015 34.4762 13.15 33.5162 13.15ZM33.5012 10.75C34.0912 10.75 34.6312 10.675 35.1212 10.525C35.6212 10.365 36.0512 10.15 36.4112 9.88C36.7712 9.6 37.0462 9.275 37.2362 8.905C37.4362 8.535 37.5362 8.135 37.5362 7.705C37.5362 7.275 37.4362 6.875 37.2362 6.505C37.0462 6.135 36.7712 5.815 36.4112 5.545C36.0512 5.265 35.6212 5.05 35.1212 4.9C34.6312 4.74 34.0912 4.66 33.5012 4.66C32.9112 4.66 32.3662 4.74 31.8662 4.9C31.3762 5.05 30.9462 5.265 30.5762 5.545C30.2162 5.815 29.9412 6.135 29.7512 6.505C29.5612 6.875 29.4662 7.275 29.4662 7.705C29.4662 8.135 29.5612 8.535 29.7512 8.905C29.9412 9.275 30.2162 9.6 30.5762 9.88C30.9462 10.15 31.3762 10.365 31.8662 10.525C32.3662 10.675 32.9112 10.75 33.5012 10.75Z" fill="#C66D6B"/>
<path d="M49.9482 13V2.5H56.0382C56.8782 2.5 57.5932 2.64 58.1832 2.92C58.7732 3.19 59.2232 3.58 59.5332 4.09C59.8432 4.59 59.9982 5.18 59.9982 5.86C59.9982 6.53 59.8232 7.135 59.4732 7.675C59.1232 8.205 58.6482 8.625 58.0482 8.935C57.4482 9.235 56.7782 9.385 56.0382 9.385H52.3782V13H49.9482ZM57.6582 13L54.0882 8.26L56.7582 7.885L60.6282 13H57.6582ZM52.3782 7.435H55.7382C56.0382 7.435 56.3132 7.375 56.5632 7.255C56.8232 7.135 57.0282 6.97 57.1782 6.76C57.3382 6.54 57.4182 6.285 57.4182 5.995C57.4182 5.705 57.3382 5.46 57.1782 5.26C57.0282 5.06 56.8232 4.905 56.5632 4.795C56.3032 4.685 56.0182 4.63 55.7082 4.63H52.3782V7.435Z" fill="#C66D6B"/>
<path d="M72.6591 10.495L72.0891 8.32L79.5291 2.5H82.8141L72.6591 10.495ZM70.9941 13V2.5H73.5441V13H70.9941ZM79.6941 13L75.2091 7.555L76.7391 5.815L82.7991 13H79.6941Z" fill="#5F4343"/>
<path d="M97.6932 13.15C96.8432 13.15 96.0632 13.075 95.3532 12.925C94.6432 12.765 93.9982 12.555 93.4182 12.295C92.8482 12.025 92.3282 11.72 91.8582 11.38L93.0282 9.34C93.8482 9.92 94.6732 10.345 95.5032 10.615C96.3332 10.875 97.1282 11.005 97.8882 11.005C98.2182 11.005 98.5632 10.975 98.9232 10.915C99.2832 10.845 99.5832 10.73 99.8232 10.57C100.073 10.4 100.198 10.17 100.198 9.88C100.198 9.71 100.138 9.57 100.018 9.46C99.9082 9.34 99.7532 9.245 99.5532 9.175C99.3532 9.105 99.1182 9.05 98.8482 9.01C98.5882 8.96 98.3032 8.925 97.9932 8.905C97.6932 8.875 97.3882 8.845 97.0782 8.815C96.3782 8.745 95.7432 8.63 95.1732 8.47C94.6032 8.31 94.1132 8.105 93.7032 7.855C93.3032 7.595 92.9932 7.28 92.7732 6.91C92.5532 6.54 92.4432 6.115 92.4432 5.635C92.4432 5.095 92.5732 4.615 92.8332 4.195C93.1032 3.775 93.4782 3.425 93.9582 3.145C94.4382 2.855 94.9882 2.635 95.6082 2.485C96.2382 2.335 96.9132 2.26 97.6332 2.26C98.3832 2.26 99.0582 2.33 99.6582 2.47C100.268 2.6 100.803 2.78 101.263 3.01C101.733 3.24 102.123 3.49 102.433 3.76L101.203 5.53C100.893 5.3 100.533 5.105 100.123 4.945C99.7232 4.775 99.2982 4.645 98.8482 4.555C98.4082 4.465 97.9682 4.42 97.5282 4.42C97.0782 4.42 96.6732 4.46 96.3132 4.54C95.9632 4.61 95.6832 4.72 95.4732 4.87C95.2732 5.01 95.1732 5.195 95.1732 5.425C95.1732 5.635 95.2582 5.81 95.4282 5.95C95.6082 6.08 95.8382 6.185 96.1182 6.265C96.3982 6.335 96.7082 6.39 97.0482 6.43C97.3882 6.47 97.7182 6.51 98.0382 6.55C98.6382 6.61 99.2282 6.69 99.8082 6.79C100.388 6.88 100.908 7.03 101.368 7.24C101.838 7.44 102.213 7.73 102.493 8.11C102.773 8.48 102.913 8.985 102.913 9.625C102.913 10.365 102.688 11 102.238 11.53C101.788 12.05 101.168 12.45 100.378 12.73C99.5982 13.01 98.7032 13.15 97.6932 13.15Z" fill="#C66D6B"/>
</svg>
